<svg xmlns="http://www.w3.org/2000/svg" xmlns:xlink="http://www.w3.org/1999/xlink" width="149" height="146" version="1.1" viewBox="0 0 149 146"><title>Group 4</title><desc>Created with Sketch.</desc><defs><path id="path-1" d="M27.7750633,13.4858482 C26.7044786,14.4555781 25.2082123,14.9348406 23.7909979,14.9355911 C22.1569345,16.2680047 19.7463014,17.4888254 17.3837555,17.8667079 C15.0084428,18.2445905 13.1153109,18.0175445 11.6336928,17.1774746 C11.120053,16.847923 10.6154878,16.6771694 10.0973405,16.6000757 C9.84885218,16.5940979 8.76746062,16.7208898 8.54691464,16.7332205 C8.38306621,17.5110202 7.87313039,18.2747469 6.95485817,18.9877836 C5.01644044,20.4708999 2.29853962,20.8896346 0.842574498,19.9375965 C-0.592819125,18.9855584 -0.144188713,17.0655328 1.8074887,15.5824165 C3.06283741,14.6126866 4.66894385,14.1049027 5.97860106,14.1428866 L16.2878069,5.44383903 C16.0722454,4.49316807 16.5067414,3.28966397 17.5541269,2.31993407 C19.1242782,0.836817757 21.389373,0.399774589 22.7779621,1.35181269 C24.1871228,2.3038508 24.1121468,4.2238764 22.5551839,5.70699271 C21.4856214,6.70524408 20.0589561,7.18450656 18.8120516,7.14652257 L11.5020054,13.4497669 C12.6545589,13.4898686 13.702839,13.8679925 14.8419713,14.5534996 C15.5618115,14.9643804 16.4720506,15.0921641 17.6639987,14.8981163 C18.8235406,14.68576 19.8128126,14.2698935 20.632526,13.6036867 L21.0899498,13.2043861 C20.8286335,12.2537152 21.2484978,11.0502111 22.3277523,10.0804812 C23.9466446,8.59736484 26.3689324,8.1786301 27.8749209,9.1306682 C29.401481,10.0827063 29.3806958,12.0027319 27.7750633,13.4858482 Z M21.7447921,2.44372384 C20.9391942,1.89447109 19.4690993,2.1600102 18.5601224,3.01565422 C17.6383731,3.87129825 17.5258308,5.08887546 18.336035,5.63812821 C19.1530863,6.18738097 20.6719245,5.92184186 21.5890675,5.06619783 C22.493438,4.21055381 22.5844364,3.01128502 21.7447921,2.44372384 Z M2.31759407,18.8720892 C3.15372874,19.4213419 4.79479173,19.1660159 5.97500259,18.3001588 C7.07691975,17.4445148 7.29538679,16.2269376 6.46385847,15.6776848 C5.63917716,15.1284321 3.98133627,15.3939712 2.87481277,16.2496152 C1.75551686,17.1052592 1.46078142,18.304528 2.31759407,18.8720892 Z M23.23931,13.3803669 C24.1236353,13.9296196 25.7251837,13.6640805 26.6704875,12.8084365 C27.6030189,11.9527925 27.6329199,10.7352153 26.753201,10.1859625 C25.8803291,9.63670975 24.3275241,9.90224886 23.3903863,10.7578929 C22.4404761,11.6135369 22.3327005,12.8128057 23.23931,13.3803669 Z"/></defs><g id="Page-1" fill="none" fill-rule="evenodd" stroke="none" stroke-width="1"><g id="Artboard" transform="translate(-17.000000, -29.000000)"><g id="Group-4" transform="translate(19.000000, 30.000000)"><g id="Group-3"><polygon id="polygon12" fill="#BFF2FF" fill-rule="nonzero" stroke="#394D54" stroke-linejoin="round" stroke-width="4" points="45.953 92.915 0 116.579 45.953 142.523 91.906 116.579"/><polygon id="polygon12" fill="#BFF2FF" fill-rule="nonzero" stroke="#394D54" stroke-linejoin="round" stroke-width="4" points="48.953 79.915 3 103.579 48.953 129.523 94.906 103.579"/><polygon id="polygon12" fill="#BFF2FF" fill-rule="nonzero" stroke="#394D54" stroke-linejoin="round" stroke-width="4" points="52.953 67.915 7 91.579 52.953 117.523 98.906 91.579"/><polygon id="polygon12" fill="#BFF2FF" fill-rule="nonzero" stroke="#394D54" stroke-linejoin="round" stroke-width="4" points="55.953 54.915 10 78.579 55.953 104.523 101.906 78.579"/><polygon id="polygon12" fill="#BFF2FF" fill-rule="nonzero" stroke="#394D54" stroke-linejoin="round" stroke-width="4" points="59.953 41.915 14 65.579 59.953 91.523 105.906 65.579"/><polygon id="Polygon" fill="#D8D8D8" stroke="#394D54" stroke-linejoin="round" stroke-width="4" points="82.949 1 144.397 32.223 144.397 107 82.949 141 21.5 107 21.5 32.223"/><polygon id="polygon18" fill="#0EACD1" fill-rule="nonzero" stroke="#394D54" stroke-linejoin="round" stroke-width="1.872" points="143.938 31.666 143.938 106.382 83 72.984 83 0"/><polygon id="polygon32" fill="#000" fill-rule="nonzero" points="142.273 34.679 94.79 77.698 84 71.803 84 1.963 142.273 32.264" opacity=".05"/></g><polygon id="polygon10" fill="#20C2EF" fill-rule="nonzero" stroke="#394D54" stroke-linejoin="round" stroke-width="1.872" points="22 31.666 22 106.382 83 72.984 83 0"/><g id="Group-5" transform="translate(0.000000, 2.000000)"><polygon id="polygon12" fill="#0DA3C6" fill-rule="nonzero" stroke="#394D54" stroke-linejoin="round" stroke-width="1.872" points="82.938 73.22 22 104.436 82.938 138.661 143.876 104.436"/><polygon id="polygon14" fill="#20C2EF" fill-rule="nonzero" points="25 104.994 82.783 75.341 140.574 104.939 138.095 106.345 82.783 78.009 27.535 106.311" opacity=".3"/><g id="Group" transform="translate(0.000000, 40.000000)"><g id="Group-9" fill-rule="nonzero" transform="translate(0.000000, 50.000000)"><polygon id="polygon12" fill="#BFF2FF" stroke="#394D54" stroke-linejoin="round" stroke-width="1.872" points="45.953 .915 0 24.579 45.953 50.523 91.906 24.579"/><polygon id="polygon14" fill="#FFF" points="2.262 25.002 45.836 2.523 89.416 24.96 87.547 26.026 45.836 4.546 4.174 26" opacity=".3"/></g><g id="Group-9" fill-rule="nonzero" transform="translate(3.000000, 37.000000)"><polygon id="polygon12" fill="#BFF2FF" stroke="#394D54" stroke-linejoin="round" stroke-width="1.872" points="45.953 .915 0 24.579 45.953 50.523 91.906 24.579"/><polygon id="polygon14" fill="#FFF" points="2.262 25.002 45.836 2.523 89.416 24.96 87.547 26.026 45.836 4.546 4.174 26" opacity=".3"/></g><g id="Group-8" fill-rule="nonzero" transform="translate(7.000000, 25.000000)"><polygon id="polygon12" fill="#BFF2FF" stroke="#394D54" stroke-linejoin="round" stroke-width="1.872" points="45.953 .61 0 24.274 45.953 50.219 91.906 24.274"/><polygon id="polygon14" fill="#FFF" points="2.262 24.697 45.836 2.218 89.416 24.655 87.547 25.721 45.836 4.241 4.174 25.695" opacity=".3"/></g><g id="Group-7" fill-rule="nonzero" transform="translate(10.000000, 13.000000)"><polygon id="polygon12" fill="#BFF2FF" stroke="#394D54" stroke-linejoin="round" stroke-width="1.872" points="45.953 0 0 23.664 45.953 49.609 91.906 23.664"/><polygon id="polygon14" fill="#FFF" points="2.262 24.087 45.836 1.609 89.416 24.046 87.547 25.111 45.836 3.631 4.174 25.086" opacity=".3"/></g><g id="Group-6" fill-rule="nonzero" transform="translate(14.000000, 0.000000)"><polygon id="polygon12" fill="#BFF2FF" stroke="#394D54" stroke-linejoin="round" stroke-width="1.872" points="45.953 0 0 23.664 45.953 49.609 91.906 23.664"/><polygon id="polygon14" fill="#FFF" points="2.262 24.087 45.836 1.609 89.416 24.046 87.547 25.111 45.836 3.631 4.174 25.086" opacity=".3"/></g><g id="XMLID_7_" transform="translate(42.180154, 20.055505) rotate(12.000000) translate(-42.180154, -20.055505) translate(27.680154, 9.555505)"><mask id="mask-2" fill="#fff"><use xlink:href="#path-1"/></mask><use id="Mask" fill="#384F57" fill-rule="nonzero" stroke="#394D54" xlink:href="#path-1"/></g></g><polygon id="polygon12" fill="#20C2EF" fill-rule="nonzero" stroke="#394D54" stroke-linejoin="round" stroke-width="1.872" points="82.938 0 22 29.679 82.938 62.218 143.876 29.679"/><polygon id="polygon14" fill="#20C2EF" fill-rule="nonzero" points="25 29.994 82.783 .341 140.574 29.939 138.095 31.345 82.783 3.009 27.535 31.311" opacity=".3"/></g><g id="Group-2" fill-rule="nonzero" transform="translate(83.000000, 32.000000)"><polygon id="polygon10" fill="#20C2EF" stroke="#394D54" stroke-linejoin="round" stroke-width="1.872" points="0 32.258 0 108.37 60.938 74.348 60.938 0"/><polygon id="polygon20" fill="#0EACD1" stroke="#394D54" stroke-linejoin="round" stroke-width=".936" points="50.18 17 43 21.017 43 75.102 50.18 71.093"/><polygon id="polygon22" fill="#0EACD1" stroke="#394D54" stroke-linejoin="round" stroke-width=".936" points="36.18 24 29 28.017 29 82.102 36.18 78.093"/><polygon id="polygon24" fill="#0EACD1" stroke="#394D54" stroke-linejoin="round" stroke-width=".936" points="21.183 33 14 37.017 14 91.102 21.183 87.093"/><polygon id="polygon26" fill="#000" points="47.832 71.554 47.827 21.518 47.827 21.518 44 23.425 44 21.223 49.815 18 49.815 70.442" opacity=".12"/><polygon id="polygon28" fill="#000" points="32.927 79.537 32.922 29.564 32.922 29.564 29 31.517 29 29.289 34.845 26 34.845 78.508" opacity=".12"/><polygon id="polygon30" fill="#000" points="18.919 87.528 18.914 37.573 18.914 37.576 15 39.525 15 37.289 20.831 34 20.831 86.49" opacity=".12"/></g></g></g></g></svg>